<svg width="80" height="24" viewBox="0 0 80 24" fill="none" xmlns="http://www.w3.org/2000/svg">
  <path d="M55.5 10.5C55.5 13.75 53 16.5 49.5 16.5H46.5L45.25 24H40L40.25 22.5L41.5 15H42.75C46.25 15 49.75 12.25 49.75 9C49.75 6.75 47.75 5 45.25 5H39L36 24H31L34 5H45.25C51 5 55.5 7.25 55.5 10.5Z" fill="#003087"/>
  <path d="M24.5 10.5C24.5 13.75 22 16.5 18.5 16.5H15.5L14.25 24H9L9.25 22.5L10.5 15H11.75C15.25 15 18.75 12.25 18.75 9C18.75 6.75 16.75 5 14.25 5H8L5 24H0L3 5H14.25C20 5 24.5 7.25 24.5 10.5Z" fill="#0070E0"/>
</svg> 