<svg width="80" height="24" viewBox="0 0 80 24" fill="none" xmlns="http://www.w3.org/2000/svg">
  <path d="M29.1727 7.05603L21.9204 16.9421H18.1079L14.5221 9.05158C14.3104 8.40004 14.1287 8.19642 13.644 7.96548C12.8366 7.5789 11.5228 7.21956 10.3784 7.01594L10.4693 7.05603H16.0075C16.7235 7.05603 17.3774 7.54625 17.5455 8.31762L19.3117 14.4534L23.5427 7.05603H29.1727ZM55.7969 14.0534C55.8115 11.7444 52.4073 11.6334 52.4364 10.5187C52.4437 10.1702 52.7736 9.79363 53.5024 9.69917C53.8615 9.65163 54.9221 9.61236 56.126 10.193L56.8675 7.42283C56.0457 7.12879 54.9802 6.84222 53.6373 6.84222C48.5044 6.84222 45.1002 9.37789 45.0711 13.0387C45.0419 15.8222 47.5375 17.3643 49.4123 18.2718C51.3455 19.1793 51.9703 19.7674 51.9703 20.5387C51.9484 21.7426 50.4951 22.2751 49.1667 22.2968C46.6711 22.331 45.1731 21.498 44.011 20.8926L43.2695 23.7599C44.4285 24.3627 46.6276 24.8952 48.9221 24.9169C54.342 24.9169 57.7316 22.4104 57.7462 18.5421C57.7608 16.3248 56.502 14.6499 53.5168 13.3942C51.6129 12.5641 50.5668 12.0399 50.5815 11.2031C50.5815 10.4761 51.3747 9.91009 52.9189 9.91009C54.1519 9.88827 55.0521 10.1529 55.7546 10.4318L56.4961 7.60099L55.7969 14.0534ZM72.9978 16.9421H77.7229L74.0736 7.05603H69.6789C69.0323 7.05603 68.4784 7.433 68.2374 8.03463L61.5685 16.9421H67.1986L68.136 14.6755H73.9272L72.9978 16.9421ZM69.3814 11.3646L71.4824 7.98709L72.6995 11.3646H69.3814ZM42.9396 7.05603L38.2728 16.9421H32.8391L37.4912 7.05603H42.9396Z" fill="#1434CB"/>
</svg> 